<?xml version="1.0" encoding="UTF-8"?>
<svg width="1440px" height="1024px" viewBox="0 0 1440 1024" version="1.1" xmlns="http://www.w3.org/2000/svg" xmlns:xlink="http://www.w3.org/1999/xlink">
    <!-- Generator: Sketch 59.1 (86144) - https://sketch.com -->
    <title>Group</title>
    <desc>Created with Sketch.</desc>
    <g id="Page-1" stroke="none" stroke-width="1" fill="none" fill-rule="evenodd">
        <g id="03-copy-3">
            <g id="Group" transform="translate(-16.000000, 0.000000)">
                <rect id="Rectangle" fill="#3E0F6F" x="16" y="0" width="1440" height="1027"></rect>
                <path d="M1294,1023.99938 L1294,1026.67244 L-3.41060513e-13,1026.67244 L-3.41060513e-13,281.886057 L44.9160067,281.886057 L44.9160067,363.729831 L89.8320134,363.729831 L89.283,727.672376 L135,727.672376 L135,337.011424 L180.832013,337.011424 L180.832013,363.729831 L224.832013,363.729831 L224.283,727.672376 L268.52,727.672376 L268,403.16017 L312,403.16017 L313,281.886057 L357.832013,281.886057 L357.832,706.672376 L402.42,706.672376 L402,474.42657 L446,474.42657 L447,242.232142 L491.832013,242.232142 L491.832,666.672376 L535.999,666.672376 L536,546.74667 L580,546.74667 L580,221.696376 L624.832013,221.696376 L624.832,613.672376 L713.999,613.672376 L714,221.696376 L758.832013,221.696376 L758.832013,549.135007 L802.832013,549.135007 L802.832,666.672376 L847.999,666.672376 L848,241.696376 L892.832013,241.696376 L892.832013,476.549444 L936.832013,476.549444 L936.832,706.672376 L981.999,706.672376 L982,279.352751 L1026.83201,279.352751 L1026.83201,405.825695 L1070.83201,405.825695 L1070.832,727.672376 L1115.999,727.672376 L1116,333.340817 L1160.83201,333.340817 L1160.83201,358.120597 L1204.83201,358.120597 L1204.832,727.672376 L1249.167,727.672376 L1249.16799,398.654356 L1294,398.654356 L1294,285 L1338,285 L1338,709.160376 L1383,709.160654 L1383,469.727036 L1427.83201,469.727036 L1427.83201,242.820355 L1471.83201,242.820355 L1471.83201,1024 L1294,1023.99938 Z" id="Combined-Shape" fill="#ED6164"></path>
            </g>
        </g>
    </g>
</svg>