<?xml version="1.0" encoding="UTF-8"?>
<svg width="486px" height="323px" viewBox="0 0 486 323" version="1.1" xmlns="http://www.w3.org/2000/svg" xmlns:xlink="http://www.w3.org/1999/xlink">
    <!-- Generator: Sketch 60.1 (88133) - https://sketch.com -->
    <title>Group</title>
    <desc>Created with Sketch.</desc>
    <defs>
        <polygon id="path-1" points="0 0 84 0 84 156 0 156"></polygon>
    </defs>
    <g id="Page-1" stroke="none" stroke-width="1" fill="none" fill-rule="evenodd">
        <g id="03" transform="translate(-463.000000, -236.000000)">
            <g id="Group" transform="translate(463.000000, 236.000000)">
                <g id="synth-voice-01-copy" stroke="#1D1D1B" stroke-linejoin="round">
                    <line x1="485" y1="219" x2="229" y2="175" id="Path"></line>
                    <line x1="0.525229358" y1="218.870003" x2="228.474771" y2="175" id="Path"></line>
                    <line x1="228.444343" y1="175.603829" x2="228.888686" y2="0.526946108" id="Path"></line>
                    <path d="M352,228 L204,195 L352,228 Z" id="Path" fill="#FFFFFF" fill-rule="nonzero"></path>
                    <path d="M350.786601,228.230151 L363.54999,231 L363.54999,231 L415.790238,211.122638 C415.790238,211.122638 414.500355,192.614134 416.325539,181.309809 C418.150723,170.005483 422.774952,155.21796 425,151.188504 C425,151.188504 419.840469,145.719498 404.748842,146.689909 L398.163991,148.026635 C398.163991,148.026635 399.402278,144.344214 400.576072,143.354523 C401.749865,142.364832 401.936898,139.672102 401.543484,137.930503 C400.253601,132.487203 394.687757,132.28798 394.687757,132.28798 C394.687757,132.28798 379.48649,129.717354 355.842941,128.027168 C332.199391,126.336982 314.121686,123.277937 314.121686,123.277937 C275.786373,120.251026 255.69645,120.283159 255.69645,120.283159 C252.612755,119.684064 249.418889,120.040671 246.544733,121.304982 C243.886198,122.347888 242.481269,125.254189 243.320026,127.975756 L243.100746,132.647868 L200.534618,136.587351 C200.534618,136.587351 193.485409,136.915106 192.247122,139.537144 C191.008834,142.159182 194.826887,148.977766 194.826887,154.241122 L194.594708,193.250364 L203.198226,195.178333" id="Path" fill="#FFFFFF" fill-rule="nonzero"></path>
                    <polygon id="Path" points="248.292487 322 52 234.916129 176.690597 208 376 260.774194"></polygon>
                    <polygon id="Path" points="254 103.673425 297 105 297 15 254 20.3774806"></polygon>
                    <polygon id="Path" points="297 102 257 100.930059 257 22.7730913 297 18"></polygon>
                    <polygon id="Path" points="374 109.484723 424 111 424 8 374 14.1517666"></polygon>
                    <polygon id="Path" points="423 108 377 106.783432 377 17.4553458 423 12"></polygon>
                    <polygon id="Path" fill="#FFFFFF" fill-rule="nonzero" points="149 212.102564 145 211 145 240.628205 149 242"></polygon>
                    <polygon id="Path" points="242 275.176254 247 277 247 240.474247 242 239"></polygon>
                    <polygon id="Path" fill="#FFFFFF" fill-rule="nonzero" points="286 225 291 226.122318 291 261 286 259.673024"></polygon>
                    <polygon id="Path" fill="#FFFFFF" fill-rule="nonzero" points="152 210 148 211.379594 148 242 152 240.889756"></polygon>
                    <polygon id="Path" fill="#FFFFFF" fill-rule="nonzero" points="193 200.102564 189 199 189 228.634615 193 230"></polygon>
                    <polygon id="Path" fill="#FFFFFF" fill-rule="nonzero" points="197 199 193 200.373306 193 231 197 229.889528"></polygon>
                    <polygon id="Path" fill="#FFFFFF" fill-rule="nonzero" points="251 237 246 237.887745 246 277 251 275.295272"></polygon>
                    <polygon id="Path" fill="#FFFFFF" fill-rule="nonzero" points="294 220 290 220.894034 290 260 294 258.295546"></polygon>
                    <polygon id="Path" fill="#FFFFFF" fill-rule="nonzero" points="247 231.504762 145 204 145 210.857143 247 240"></polygon>
                    <polygon id="Path" fill="#FFFFFF" fill-rule="nonzero" points="295 218 246 231.575548 246 240 295 225.434833"></polygon>
                    <polygon id="Path" fill="#FFFFFF" fill-rule="nonzero" points="192.512601 195 295 217.930298 246.487399 231 144 203.738354"></polygon>
                    <path d="M363.477113,231 C363.477113,231 362.521868,206.503914 364.438811,195.505933 C364.438811,195.505933 367.885435,171.25922 373.42327,163.023522 L425,151.590737 C425,151.590737 419.836518,146.149293 404.733333,147.114814 L367.265817,153.751968 C360.082123,155.478395 349.65189,158.758607 349,193.395855 C349,216.529981 350.716858,228.237716 350.716858,228.237716 L363.477113,231 Z" id="Path" fill="#FFFFFF" fill-rule="nonzero"></path>
                    <path d="M363,231 L415.707819,211.07569 C415.707819,211.07569 414.406393,192.523472 416.24791,181.192447 C418.089428,169.861422 422.75504,155.045414 425,151 L373.001526,162.517836 C373.001526,162.517836 367.405394,171.156212 363.943601,195.241887 C362.974039,206.076898 363,231 363,231 Z" id="Path" fill="#FFFFFF" fill-rule="nonzero"></path>
                    <path d="M374,162.321715 C374,162.321715 354.011854,151.669133 352,176" id="Path" fill="#FFFFFF" fill-rule="nonzero"></path>
                    <path d="M244,132 L201.517792,135.968657 C201.517792,135.968657 194.482481,136.298839 193.246635,138.940294 C192.010788,141.581749 195.821314,148.450827 195.821314,153.75316 L195.589593,193.057754 L204.176148,195 L204.356376,157.054979 C204.356376,157.054979 205.000045,140.785428 197.919677,137.794369 L195.69258,137.146953" id="Path" fill="#FFFFFF" fill-rule="nonzero"></path>
                    <line x1="351" y1="229" x2="203" y2="196" id="Path"></line>
                    <path d="M349.448567,205 L271.123545,190.359915 C269.625485,185.494053 269.625485,180.293527 271.123545,175.427664 C282.306086,172.300625 293.741498,170.14992 305.299763,169 C320.700837,170.150601 335.983692,172.533752 351,176.126323" id="Path"></path>
                    <path d="M271,175 C271,175 296.75807,175.381998 350,187" id="Path"></path>
                    <line x1="205" y1="178" x2="271" y2="190" id="Path"></line>
                    <path d="M271.55707,175 L205,164.320435 C217.750446,159.554615 243.598726,159 243.598726,159 C264.567052,160.92364 285.403752,164.087013 306,168.473599" id="Path"></path>
                    <path d="M315,123.254388 C276.805622,120.257026 256.789558,120.288845 256.789558,120.288845 C253.71033,119.684599 250.517937,120.033425 247.645783,121.287966 C244.997936,122.318077 243.597814,125.193966 244.432932,127.887253 L243,159" id="Path"></path>
                    <path d="M305.008401,169 C305.008401,169 304.31867,133.938111 315.438171,123 C315.438171,123 333.487216,126.114007 357.137912,127.820847 C380.788607,129.527687 395.962697,132.13355 395.962697,132.13355 C395.962697,132.13355 401.525671,132.335505 402.814889,137.85342 C403.2081,139.618893 403.014717,142.348534 401.847975,143.351792 C400.681234,144.355049 399.437139,148.094463 399.437139,148.094463" id="Path"></path>
                    <polygon id="Path" fill="#FFFFFF" fill-rule="nonzero" points="396 188.105255 392 187 392 226.201406 396 227"></polygon>
                    <polygon id="Path" fill="#FFFFFF" fill-rule="nonzero" points="400 187 396 188.346459 396 227 400 225.653541"></polygon>
                    <polygon id="Path" fill="#FFFFFF" fill-rule="nonzero" points="424 176.098866 420 175 420 214.201406 424 215"></polygon>
                    <polygon id="Path" fill="#FFFFFF" fill-rule="nonzero" points="428 175 424 176.346459 424 215 428 213.653541"></polygon>
                    <polygon id="Path" fill="#FFFFFF" fill-rule="nonzero" points="481 187.101735 477 186 477 225.31858 481 226"></polygon>
                    <polygon id="Path" fill="#FFFFFF" fill-rule="nonzero" points="485 185 481 186.375752 481 226 485 224.215416"></polygon>
                    <polygon id="Path" fill="#FFFFFF" fill-rule="nonzero" points="455 196.113097 451 195 451 239.182871 455 240"></polygon>
                    <polygon id="Path" fill="#FFFFFF" fill-rule="nonzero" points="459 195 455 196.356848 455 240 459 238.009529"></polygon>
                    <polygon id="Path" fill="#FFFFFF" fill-rule="nonzero" points="455 189.854474 392 181 392 188.483291 455 199"></polygon>
                    <polygon id="Path" fill="#FFFFFF" fill-rule="nonzero" points="485 179 456 189.73698 456 199 485 187.227972"></polygon>
                    <polygon id="Path" fill="#FFFFFF" fill-rule="nonzero" points="423.781818 172 484 179.013333 454.772308 190 392 180.873333"></polygon>
                </g>
                <g id="gadgets-01-copy" transform="translate(0.000000, 18.000000)" fill-rule="nonzero">
                    <polygon id="Path" fill="#ED6165" points="3 120 163 98.7433255 163 0 3 4.20216069"></polygon>
                    <polygon id="Path" fill="#DD374B" points="2.81072944 119.94841 2.81072944 4 0 6.43952709 0 122 160.813877 101.04394 163 98.6640956"></polygon>
                    <circle id="Oval" fill="#FFFFFF" cx="86" cy="103" r="2"></circle>
                </g>
                <g id="gadgets-03-copy" transform="translate(433.000000, 155.000000)">
                    <path d="M17,26.4025974 C8.49638759,32.2467532 0,26.4025974 0,26.4025974 L0,4 C5.5218683,5.78278365 11.4781317,5.78278365 17,4 L17,26.4025974 Z" id="Path" fill="#ED6165" fill-rule="nonzero"></path>
                    <ellipse id="Oval" fill="#FF4855" fill-rule="nonzero" cx="8.5" cy="2" rx="8.5" ry="2"></ellipse>
                    <ellipse id="Oval" fill="#FFFFFF" fill-rule="nonzero" cx="8.5" cy="1.5" rx="1.5" ry="1"></ellipse>
                    <line x1="8.5" y1="1" x2="8.5" y2="3" id="Path" stroke="#FF4855" stroke-width="0.5"></line>
                </g>
                <g id="gadgets-04-copy-3" transform="translate(225.000000, 186.000000)" fill="#FF4855" fill-rule="nonzero">
                    <path d="M10.8661398,2.18181818 L10.1818182,2.87028053 C12.7720898,5.51335083 12.7720898,9.75937645 10.1818182,12.4024467 L10.8661398,13.0909091 C13.8324989,10.0668395 13.8324989,5.2058878 10.8661398,2.18181818 L10.8661398,2.18181818 Z" id="Path"></path>
                    <path d="M13.0293049,0 L12.3636364,0.703551996 C15.9681835,4.54037216 15.9681835,10.7323551 12.3636364,14.5691753 L13.0293049,15.2727273 C16.9902317,11.0424447 16.9902317,4.23028261 13.0293049,0 L13.0293049,0 Z" id="Path"></path>
                    <polygon id="Path" points="8 1.45454545 5.00195185 4.60469335 0 4.60469335 0 10.4253993 5.00195185 10.4253993 8 13.0909091"></polygon>
                </g>
                <g id="gadgets-04-copy-4" transform="translate(168.000000, 55.000000)" fill="#FF4855" fill-rule="nonzero">
                    <path d="M12.2244073,2.45454545 L11.4545455,3.2290656 C14.3686011,6.20251968 14.3686011,10.9792985 11.4545455,13.9527526 L12.2244073,14.7272727 C15.5615612,11.3251944 15.5615612,5.85662377 12.2244073,2.45454545 L12.2244073,2.45454545 Z" id="Path"></path>
                    <path d="M14.657968,0 L13.9090909,0.791495996 C17.9642064,5.10791867 17.9642064,12.0738995 13.9090909,16.3903222 L14.657968,17.1818182 C19.1140107,12.4227502 19.1140107,4.75906794 14.657968,0 L14.657968,0 Z" id="Path"></path>
                    <polygon id="Path" points="9 1.63636364 5.62719584 5.18028002 0 5.18028002 0 11.7285742 5.62719584 11.7285742 9 14.7272727"></polygon>
                </g>
                <g id="gadgets-04-copy-5" transform="translate(441.452381, 142.068182) rotate(-90.000000) translate(-441.452381, -142.068182) translate(433.000000, 134.000000)" fill="#FF4855" fill-rule="nonzero">
                    <path d="M11.4805942,2.30519482 L10.7575758,3.03258808 C13.4943212,5.82511772 13.4943212,10.311246 10.7575758,13.1037756 L11.4805942,13.8311689 C14.6146938,10.6360953 14.6146938,5.50026839 11.4805942,2.30519482 L11.4805942,2.30519482 Z" id="Path"></path>
                    <path d="M13.7660811,0 L13.0627706,0.743336191 C16.8711464,4.79711942 16.8711464,11.3392443 13.0627706,15.3930275 L13.7660811,16.1363637 C17.950989,11.6668687 17.950989,4.46949504 13.7660811,0 L13.7660811,0 Z" id="Path"></path>
                    <polygon id="Path" points="8.452381 1.53679655 5.28480035 4.86507783 0 4.86507783 0 11.0149309 5.28480035 11.0149309 8.452381 13.8311689"></polygon>
                </g>
                <g id="Group-3-Copy" opacity="0.90218099" transform="translate(265.000000, 81.000000)">
                    <mask id="mask-2" fill="white">
                        <use xlink:href="#path-1"></use>
                    </mask>
                    <g id="Clip-2"></g>
                    <path d="M46.5880342,78.6247813 C45.9242717,79.0972049 42.5124225,82.4021769 42.5124225,82.4021769 C42.5124225,82.4021769 44.9368812,73.4884202 45.1029469,71.9341067 C45.5571265,67.6932575 47.0872316,59.3605619 47.0872316,59.3605619 C47.0872316,59.3605619 47.2592996,68.0500669 47.5439122,68.7108619 C47.8280245,69.3721553 47.8275244,76.3448888 47.8275244,76.3448888 C47.8275244,76.3448888 47.2512965,78.152856 46.5880342,78.6247813 L46.5880342,78.6247813 Z M44.0860448,104.918046 C44.0860448,104.918046 40.0544504,109.710555 39.5612554,112.045763 C39.0675602,114.380472 38.513341,118.43594 38.513341,118.43594 L29.1996578,110.816863 C29.1996578,110.816863 43.7474108,103.197786 45.1699734,102.583337 C46.2904165,102.098953 47.2928129,101.007096 47.6679612,100.564573 L47.8275243,100.371218 C47.8275243,100.371218 47.7690012,100.445969 47.6679612,100.564573 L44.0860448,104.918046 Z M81.2142273,65.1298112 C80.9871375,62.1916153 81.9515189,58.1795029 82.5752656,55.7496109 C83.1995124,53.3197189 84.0503489,47.6690739 83.9933263,44.3915105 C83.936804,41.113947 81.5543618,36.6498428 80.5904807,35.6327367 C79.6260993,34.6151322 67.1476646,27.15652 66.013216,26.7040299 C64.8787674,26.2520381 65.9566936,24.8397506 65.9566936,23.7095219 C65.9566936,22.5792932 68.3386356,20.0362787 68.8493376,18.9060501 C69.3595393,17.7758214 70.6645554,14.4419458 70.6645554,8.73449041 C70.6645554,3.02753332 63.2911395,0.710265548 60.6250852,0.145649552 C57.9590309,-0.419963118 53.8188937,0.767075984 51.6065188,1.89730465 C49.3946441,3.02753332 47.5794262,10.1472762 47.5794262,10.1472762 C47.5794262,10.1472762 46.8421347,15.0638706 46.7285898,15.9110438 C46.6155451,16.7587153 46.9916938,23.4264664 47.2062787,24.682276 C47.4208635,25.9380857 49.7272756,28.2090081 50.3625268,28.6899034 C50.9982782,29.1707988 50.3625268,30.5222891 50.3625268,30.5222891 C50.3625268,30.5222891 47.7970123,32.3815851 44.0860448,32.8465336 C40.3750772,33.3109838 37.5329533,40.0504955 37.2998611,44.2340359 C37.0667689,48.417078 33.3342929,66.3118669 33.3342929,66.3118669 L30.3020938,86.8358826 L18.8720737,93.5021387 C18.8720737,93.5021387 12.8071753,96.9880071 3.70957763,103.727519 C-5.38751987,110.46703 5.10963129,118.368166 5.10963129,118.368166 C5.10963129,118.368166 20.9714039,126.502523 23.5374187,127.431922 C26.1029332,128.361819 47.0972356,140.678222 47.0972356,140.678222 C47.0972356,140.678222 47.1257468,141.529382 47.1257468,141.868251 C47.1257468,142.20712 46.2754106,143.281037 45.1404617,143.902463 C44.0060131,144.524388 41.1138694,145.371561 39.8658759,145.654119 C38.6178823,145.937174 37.7105235,147.349462 37.4834337,148.649623 C37.2568441,149.949287 39.4121965,150.683835 39.4121965,150.683835 C39.4121965,150.683835 47.1257468,150.231345 49.6782562,149.835666 C52.2307656,149.440484 54.1415213,145.993486 54.1415213,145.993486 L56.5979927,142.772733 C56.5979927,142.772733 57.165217,143.619906 57.7324413,143.846151 C58.2996656,144.072396 57.8459862,145.202625 57.8459862,145.202625 C57.8459862,145.202625 54.3290954,150.909582 53.7618711,152.435491 C53.1946468,153.960901 54.9533423,155.543619 55.2934768,155.825678 C55.6336113,156.108235 59.4341142,156.33448 64.1414758,154.074023 C68.8493376,151.813566 69.9272638,143.224227 69.9272638,143.224227 C69.9272638,143.224227 70.608033,141.755129 70.8346227,141.02058 C71.0612123,140.286031 71.1182348,137.969261 70.7776001,136.895843 C70.4374656,135.821927 69.0759272,132.544363 68.9628825,131.583569 C68.8493376,130.623273 58.8103676,118.134944 58.356188,117.626142 C57.9025086,117.117838 58.356188,116.439601 58.356188,116.439601 C58.356188,116.439601 63.6877964,109.828162 66.1267609,106.946278 C68.5657254,104.064395 75.769074,101.012578 79.9097115,97.6787024 C84.0503489,94.3448268 83.8797814,81.9696203 83.9963275,78.5221238 C84.1123734,75.0751257 81.4413171,68.0685054 81.2142273,65.1298112 L81.2142273,65.1298112 Z" id="Fill-1" fill="#3F266B" mask="url(#mask-2)"></path>
                </g>
                <g id="gadgets-02-copy" transform="translate(170.000000, 175.000000)" fill-rule="nonzero">
                    <polygon id="Path" fill="#FC5E71" points="0 31.5586633 35.3570872 41 68 31.918271 30.279595 23"></polygon>
                    <polygon id="Path" fill="#ED6165" points="35.7279333 40 0 30.4648074 19.4449077 0 56 4.08366534"></polygon>
                    <polygon id="Path" fill="#DD374B" points="35.8991785 41 0 31.7381924 0 30 36 39.2104956"></polygon>
                </g>
            </g>
        </g>
    </g>
</svg>