<svg id="Layer_1" data-name="Layer 1" xmlns="http://www.w3.org/2000/svg" viewBox="0 0 431.53 30.17"><defs><style>.cls-1{fill:#fff;}</style></defs><title>BBC_R&amp;amp;D_Primary_Logo</title><path class="cls-1" d="M239,580.55h29.44V608.3H239V580.55Zm18.1,13.24a4.43,4.43,0,0,0,2.55-4s.39-4.75-5.92-5.33h-7V604.4h8s6.7,0,6.7-5.63c0,0,.16-3.84-4.35-5m-6.81-6.23h2.86c3,.16,2.85,2.37,2.85,2.37,0,2.75-3.28,2.79-3.28,2.79h-2.43v-5.16Zm7.5,10.92c0,3-3.75,2.84-3.75,2.84h-3.75v-5.45H254c3.86,0,3.75,2.61,3.75,2.61" transform="translate(-205 -580.55)"/><path class="cls-1" d="M205,580.55h29.44V608.3H205V580.55Zm18.1,13.24a4.41,4.41,0,0,0,2.54-4s.39-4.75-5.91-5.33h-7V604.4h8s6.7,0,6.7-5.63c0,0,.16-3.84-4.35-5m-6.81-6.23h2.86c3,.16,2.85,2.37,2.85,2.37,0,2.75-3.28,2.79-3.28,2.79h-2.43v-5.16Zm7.5,10.92c0,3-3.75,2.84-3.75,2.84h-3.75v-5.45H220c3.86,0,3.75,2.61,3.75,2.61" transform="translate(-205 -580.55)"/><path class="cls-1" d="M272.9,608.3h29.44V580.55H272.9V608.3Zm23.44-22.41v3.68a16.79,16.79,0,0,0-7.57-2.25s-7.42-.15-7.75,7.1c0,0-.27,6.67,7.66,7.05,0,0,3.33.41,7.84-2.47v3.81a15.91,15.91,0,0,1-13.07.83,10,10,0,0,1,1.5-18.89,14.22,14.22,0,0,1,5.87-.45,21.6,21.6,0,0,1,5.52,1.59" transform="translate(-205 -580.55)"/><path class="cls-1" d="M320.46,594.09H324a6.92,6.92,0,0,0,4-.92,3.19,3.19,0,0,0,1.32-2.8q0-3.75-5.27-3.75h-3.53v7.47Zm0,2.24v8.07h-2.74v-20h6.47a9.51,9.51,0,0,1,5.84,1.55,5.28,5.28,0,0,1,2,4.44,5.41,5.41,0,0,1-1.1,3.42,6.18,6.18,0,0,1-3.1,2q2.79,4.17,5.4,8.57H330q-1.17-2.07-2.39-4.08c-.82-1.33-1.66-2.67-2.54-4l-.95,0Z" transform="translate(-205 -580.55)"/><path class="cls-1" d="M341.16,591.74a3.55,3.55,0,0,0-2.65,1.08,5.22,5.22,0,0,0-1.33,2.95h7.42a5.15,5.15,0,0,0-1-3,3,3,0,0,0-2.46-1Zm5.49,11.76a9.51,9.51,0,0,1-5,1.26,7.54,7.54,0,0,1-3.79-.91,6.14,6.14,0,0,1-2.48-2.59,8.46,8.46,0,0,1-.87-4,9.25,9.25,0,0,1,.82-4,6.08,6.08,0,0,1,2.31-2.66,6.45,6.45,0,0,1,3.54-.94,5.46,5.46,0,0,1,4.45,1.82,7.78,7.78,0,0,1,1.51,5.12v1.12h-10a5.33,5.33,0,0,0,1.41,3.6,4.67,4.67,0,0,0,3.46,1.28,8.51,8.51,0,0,0,2.41-.34,8.9,8.9,0,0,0,2.24-1.06v2.29Z" transform="translate(-205 -580.55)"/><path class="cls-1" d="M354.39,604.76a10.21,10.21,0,0,1-2.5-.29,8.88,8.88,0,0,1-2.14-.86v-2.35a7.24,7.24,0,0,0,2.11,1.07,8.36,8.36,0,0,0,2.48.36,4.38,4.38,0,0,0,2.41-.56,1.82,1.82,0,0,0,.84-1.62,1.85,1.85,0,0,0-.26-1,1.89,1.89,0,0,0-.89-.65,11.84,11.84,0,0,0-1.88-.59,12.69,12.69,0,0,1-2.91-1,3.66,3.66,0,0,1-1.51-1.38,4.22,4.22,0,0,1,.22-4.18,4.21,4.21,0,0,1,1.93-1.47,7.69,7.69,0,0,1,3-.52,8.14,8.14,0,0,1,4.37,1.09v2.33a6.14,6.14,0,0,0-1.9-1,7.63,7.63,0,0,0-2.3-.35,4.36,4.36,0,0,0-2.32.52,1.66,1.66,0,0,0-.84,1.5,1.73,1.73,0,0,0,.25,1,2,2,0,0,0,.91.65q.66.26,1.89.6a12.6,12.6,0,0,1,2.85,1,3.8,3.8,0,0,1,1.54,1.37,3.71,3.71,0,0,1,.48,2,4,4,0,0,1-.71,2.36,4.47,4.47,0,0,1-2,1.53,8.09,8.09,0,0,1-3.08.53Z" transform="translate(-205 -580.55)"/><path class="cls-1" d="M369.1,591.74a3.54,3.54,0,0,0-2.65,1.08,5.22,5.22,0,0,0-1.33,2.95h7.42a5.15,5.15,0,0,0-1-3,3,3,0,0,0-2.46-1Zm5.49,11.76a9.53,9.53,0,0,1-5,1.26,7.54,7.54,0,0,1-3.79-.91,6.08,6.08,0,0,1-2.48-2.59,8.46,8.46,0,0,1-.87-4,9.4,9.4,0,0,1,.81-4,6.08,6.08,0,0,1,2.31-2.66,6.51,6.51,0,0,1,3.55-.94,5.46,5.46,0,0,1,4.45,1.82,7.78,7.78,0,0,1,1.51,5.12v1.12h-10a5.33,5.33,0,0,0,1.41,3.6,4.67,4.67,0,0,0,3.46,1.28,8.51,8.51,0,0,0,2.41-.34,8.9,8.9,0,0,0,2.24-1.06v2.29Z" transform="translate(-205 -580.55)"/><path class="cls-1" d="M379.94,600.45c0,1.48.89,2.21,2.66,2.21a4.85,4.85,0,0,0,3.81-1.79v-2.69L385.2,598c-.43,0-.85,0-1.26,0a6.06,6.06,0,0,0-3,.58,2,2,0,0,0-1,1.88Zm9.15,4.23c-1.51,0-2.36-.64-2.54-1.91a6.21,6.21,0,0,1-2.08,1.5,6,6,0,0,1-2.46.49,5,5,0,0,1-3.44-1.09,3.87,3.87,0,0,1-1.24-3,3.8,3.8,0,0,1,1.66-3.31,8.37,8.37,0,0,1,4.78-1.14c.4,0,.83,0,1.29.05l1.35.14V595a3,3,0,0,0-.89-2.35,3.59,3.59,0,0,0-2.53-.81,7.74,7.74,0,0,0-2.38.35,8.6,8.6,0,0,0-2.24,1.1v-2.35a9.39,9.39,0,0,1,2.39-.95,10.27,10.27,0,0,1,2.51-.31,6.86,6.86,0,0,1,3.07.63,4.49,4.49,0,0,1,1.94,1.79,5.49,5.49,0,0,1,.67,2.79v6.72a1.3,1.3,0,0,0,.21.82.86.86,0,0,0,.72.27,2.39,2.39,0,0,0,1-.22v1.82a2.51,2.51,0,0,1-.79.29,5.17,5.17,0,0,1-1,.1Z" transform="translate(-205 -580.55)"/><path class="cls-1" d="M399.67,592.13a4.59,4.59,0,0,0-3.81,2.1V604.4h-2.63V590h2.21l.25,2.19a4.79,4.79,0,0,1,4.09-2.44,4.26,4.26,0,0,1,1.9.37v2.52a2.44,2.44,0,0,0-.91-.41,4.81,4.81,0,0,0-1.1-.13Z" transform="translate(-205 -580.55)"/><path class="cls-1" d="M410.41,604.76a8,8,0,0,1-3.88-.89,6.08,6.08,0,0,1-2.48-2.59,9,9,0,0,1-.86-4.08,8.35,8.35,0,0,1,.89-4,6.39,6.39,0,0,1,2.54-2.61,7.8,7.8,0,0,1,3.87-.92,8.72,8.72,0,0,1,2.17.24,6.9,6.9,0,0,1,1.81.74v2.41a5.6,5.6,0,0,0-1.78-.93,7.08,7.08,0,0,0-2.06-.3,4.79,4.79,0,0,0-2.54.64,4.21,4.21,0,0,0-1.63,1.83,7.81,7.81,0,0,0,0,5.81,4.22,4.22,0,0,0,1.6,1.85,4.68,4.68,0,0,0,2.52.65,6.93,6.93,0,0,0,4.09-1.29v2.35a7,7,0,0,1-2,.81,9.13,9.13,0,0,1-2.28.28Z" transform="translate(-205 -580.55)"/><path class="cls-1" d="M424.18,591.85a4.87,4.87,0,0,0-2.14.49,5.11,5.11,0,0,0-1.75,1.45V604.4h-2.63V583.54h2.63v8.12a6.3,6.3,0,0,1,2-1.49,5.93,5.93,0,0,1,2.45-.5,5.56,5.56,0,0,1,2.73.64,4.31,4.31,0,0,1,1.75,1.88,6.58,6.58,0,0,1,.62,3v9.24H427.2v-9.07a3.82,3.82,0,0,0-.78-2.58,2.81,2.81,0,0,0-2.24-.9Z" transform="translate(-205 -580.55)"/><path class="cls-1" d="M444.2,588.72a4.65,4.65,0,0,0,.2,1.38,5.13,5.13,0,0,0,.61,1.28,11.05,11.05,0,0,0,1.15,1.43,11,11,0,0,0,2-1.19,3.87,3.87,0,0,0,1.12-1.31,3.47,3.47,0,0,0,.35-1.56,2.67,2.67,0,0,0-.7-1.94,2.57,2.57,0,0,0-1.93-.72,3.19,3.19,0,0,0-1.5.33,2.44,2.44,0,0,0-1,.93,2.66,2.66,0,0,0-.35,1.37Zm-1.74,10.36a3.09,3.09,0,0,0,1.21,2.59,5.32,5.32,0,0,0,3.33.94,6.75,6.75,0,0,0,4.17-1.26l-2.41-2.47-1.9-2c-.56-.59-1.07-1.15-1.54-1.67a6.86,6.86,0,0,0-1.76,1.16,3.46,3.46,0,0,0-.86,1.26,4.11,4.11,0,0,0-.24,1.42Zm11.76,5.32c-.52-.52-1-1-1.51-1.49a9,9,0,0,1-2.73,1.38,11.42,11.42,0,0,1-3.34.47,9.11,9.11,0,0,1-3.6-.66,5.31,5.31,0,0,1-2.42-1.89,5,5,0,0,1-.87-2.94,4.77,4.77,0,0,1,1.06-3.06,10.06,10.06,0,0,1,3.19-2.45,14.9,14.9,0,0,1-1.24-1.68,6.49,6.49,0,0,1-.74-1.56,5.08,5.08,0,0,1-.26-1.61,4.7,4.7,0,0,1,.68-2.54,4.53,4.53,0,0,1,1.86-1.71,6,6,0,0,1,2.78-.62,5.65,5.65,0,0,1,2.66.59,4.3,4.3,0,0,1,1.74,1.61,4.5,4.5,0,0,1,.62,2.37,4.65,4.65,0,0,1-1.11,3,10.86,10.86,0,0,1-3.49,2.59l2.4,2.47c.87.89,1.81,1.86,2.84,2.88a10.31,10.31,0,0,0,1.32-5.29h2.49a14.54,14.54,0,0,1-.6,3.88,9.81,9.81,0,0,1-1.56,3.06l1.57,1.54,1.68,1.63Z" transform="translate(-205 -580.55)"/><path class="cls-1" d="M474.52,602.05a7.14,7.14,0,0,0,5.37-2,8,8,0,0,0,1.88-5.77,7.84,7.84,0,0,0-1.86-5.67,7.13,7.13,0,0,0-5.36-1.92h-4v15.32Zm-6.75-17.67h7a11.36,11.36,0,0,1,5.3,1.16,8,8,0,0,1,3.42,3.37,11.35,11.35,0,0,1,1.19,5.41,11.53,11.53,0,0,1-1.19,5.44,8.08,8.08,0,0,1-3.42,3.45,11.19,11.19,0,0,1-5.33,1.19h-7v-20Z" transform="translate(-205 -580.55)"/><path class="cls-1" d="M493.94,591.74a3.54,3.54,0,0,0-2.65,1.08,5.22,5.22,0,0,0-1.33,2.95h7.42a5.15,5.15,0,0,0-1-3,3,3,0,0,0-2.46-1Zm5.49,11.76a9.53,9.53,0,0,1-5,1.26,7.54,7.54,0,0,1-3.79-.91,6.08,6.08,0,0,1-2.48-2.59,8.46,8.46,0,0,1-.87-4,9.4,9.4,0,0,1,.81-4,6.21,6.21,0,0,1,2.31-2.66,6.51,6.51,0,0,1,3.55-.94,5.46,5.46,0,0,1,4.45,1.82,7.78,7.78,0,0,1,1.51,5.12v1.12h-10a5.33,5.33,0,0,0,1.41,3.6,4.67,4.67,0,0,0,3.46,1.28,8.51,8.51,0,0,0,2.41-.34,8.9,8.9,0,0,0,2.24-1.06v2.29Z" transform="translate(-205 -580.55)"/><path class="cls-1" d="M515.08,590c-.9,2.52-1.82,5-2.78,7.34s-1.92,4.71-2.91,7H506.7c-1-2.24-1.93-4.57-2.89-7s-1.89-4.88-2.76-7.4h2.83q1,3.06,2.05,6c.72,2,1.45,3.93,2.17,5.86q1.13-2.91,2.2-5.87t2.06-6Z" transform="translate(-205 -580.55)"/><path class="cls-1" d="M522.73,591.74a3.54,3.54,0,0,0-2.65,1.08,5.22,5.22,0,0,0-1.33,2.95h7.42a5.15,5.15,0,0,0-1-3,3,3,0,0,0-2.46-1Zm5.49,11.76a9.56,9.56,0,0,1-5,1.26,7.51,7.51,0,0,1-3.79-.91,6.08,6.08,0,0,1-2.48-2.59,8.46,8.46,0,0,1-.87-4,9.4,9.4,0,0,1,.81-4,6.08,6.08,0,0,1,2.31-2.66,6.51,6.51,0,0,1,3.55-.94,5.46,5.46,0,0,1,4.45,1.82,7.78,7.78,0,0,1,1.51,5.12v1.12h-10a5.38,5.38,0,0,0,1.42,3.6,4.67,4.67,0,0,0,3.46,1.28,8.38,8.38,0,0,0,2.4-.34,8.8,8.8,0,0,0,2.25-1.06v2.29Z" transform="translate(-205 -580.55)"/><path class="cls-1" d="M535.17,604.65a3.12,3.12,0,0,1-2.41-.85,3.8,3.8,0,0,1-.78-2.62V583.54h2.63v17.53a1.78,1.78,0,0,0,.29,1.13,1.26,1.26,0,0,0,1,.35,2.33,2.33,0,0,0,.68-.1,5.51,5.51,0,0,0,.74-.26v2a4.62,4.62,0,0,1-2.15.45Z" transform="translate(-205 -580.55)"/><path class="cls-1" d="M545.81,602.61a3.84,3.84,0,0,0,2.26-.66,4.26,4.26,0,0,0,1.44-1.88,7.49,7.49,0,0,0,.5-2.9,7.26,7.26,0,0,0-.5-2.85,4.07,4.07,0,0,0-1.46-1.85,4.24,4.24,0,0,0-4.48,0,4,4,0,0,0-1.45,1.85,7.26,7.26,0,0,0-.51,2.85,7.48,7.48,0,0,0,.51,2.9,4.12,4.12,0,0,0,1.44,1.88,3.79,3.79,0,0,0,2.25.66Zm0-12.94a7.07,7.07,0,0,1,3.67.92,6.23,6.23,0,0,1,2.39,2.61,8.64,8.64,0,0,1,.86,4,9.62,9.62,0,0,1-.49,3.14,7,7,0,0,1-1.4,2.39,6,6,0,0,1-2.19,1.53,7.87,7.87,0,0,1-5.68,0,5.91,5.91,0,0,1-2.18-1.53,6.68,6.68,0,0,1-1.4-2.39,9.36,9.36,0,0,1-.49-3.14,8.64,8.64,0,0,1,.85-4,6.36,6.36,0,0,1,2.39-2.61,7.07,7.07,0,0,1,3.67-.92Z" transform="translate(-205 -580.55)"/><path class="cls-1" d="M562.35,591.83a4.62,4.62,0,0,0-2,.43,5.38,5.38,0,0,0-1.73,1.36v8.15a7.22,7.22,0,0,0,1.54.64,6.07,6.07,0,0,0,1.59.2,4.48,4.48,0,0,0,2.48-.66,4.16,4.16,0,0,0,1.57-1.91,7.36,7.36,0,0,0,.55-2.95,6.51,6.51,0,0,0-1-3.91,3.5,3.5,0,0,0-3-1.35Zm-.25,12.93a7.23,7.23,0,0,1-3.47-.87v6.84H556V590h2.21l.19,1.74a5.75,5.75,0,0,1,4.51-2.1,6,6,0,0,1,3.29.88,5.66,5.66,0,0,1,2.13,2.51,9.29,9.29,0,0,1,.74,3.86,9.83,9.83,0,0,1-.49,3.21,7.1,7.1,0,0,1-1.41,2.48,6.31,6.31,0,0,1-2.2,1.59,7,7,0,0,1-2.87.56Z" transform="translate(-205 -580.55)"/><path class="cls-1" d="M578.58,591.85a4.17,4.17,0,0,0-2,.49,5.32,5.32,0,0,0-1.64,1.42V604.4h-2.63V590h2.21l.2,1.82a5.43,5.43,0,0,1,4.39-2.18,4.84,4.84,0,0,1,2.59.66,4.34,4.34,0,0,1,1.67,1.89,6.6,6.6,0,0,1,2.1-1.91,5.47,5.47,0,0,1,2.63-.64,5,5,0,0,1,2.59.64,4.16,4.16,0,0,1,1.65,1.88,6.87,6.87,0,0,1,.58,3v9.24h-2.63v-9.07a4,4,0,0,0-.72-2.58,2.43,2.43,0,0,0-2-.9,4.2,4.2,0,0,0-2,.52,5.33,5.33,0,0,0-1.66,1.5,10.64,10.64,0,0,1,.08,1.29v9.24h-2.63v-9.07a4,4,0,0,0-.72-2.58,2.43,2.43,0,0,0-2-.9Z" transform="translate(-205 -580.55)"/><path class="cls-1" d="M602.75,591.74a3.54,3.54,0,0,0-2.65,1.08,5.22,5.22,0,0,0-1.33,2.95h7.42a5.15,5.15,0,0,0-1-3,3,3,0,0,0-2.46-1Zm5.49,11.76a9.53,9.53,0,0,1-5,1.26,7.54,7.54,0,0,1-3.79-.91,6.08,6.08,0,0,1-2.48-2.59,8.46,8.46,0,0,1-.87-4,9.4,9.4,0,0,1,.81-4,6.15,6.15,0,0,1,2.31-2.66,6.51,6.51,0,0,1,3.55-.94,5.46,5.46,0,0,1,4.45,1.82,7.78,7.78,0,0,1,1.51,5.12v1.12h-10a5.33,5.33,0,0,0,1.41,3.6,4.67,4.67,0,0,0,3.46,1.28,8.51,8.51,0,0,0,2.41-.34,8.9,8.9,0,0,0,2.24-1.06v2.29Z" transform="translate(-205 -580.55)"/><path class="cls-1" d="M618.6,591.85a4.87,4.87,0,0,0-2.14.49,5.11,5.11,0,0,0-1.75,1.45V604.4h-2.63V590h2.21l.2,1.85a5.92,5.92,0,0,1,4.67-2.21,5.54,5.54,0,0,1,2.73.64,4.31,4.31,0,0,1,1.75,1.88,6.58,6.58,0,0,1,.62,3v9.24h-2.63v-9.07a3.83,3.83,0,0,0-.79-2.58,2.81,2.81,0,0,0-2.24-.9Z" transform="translate(-205 -580.55)"/><path class="cls-1" d="M636.53,604.06a5.06,5.06,0,0,1-1.42.53,6.81,6.81,0,0,1-1.57.17,4.32,4.32,0,0,1-3.23-1.13,4.52,4.52,0,0,1-1.11-3.29v-8.23h-2.8V590h2.8v-3.94l2.63-.62V590h4.34v2.08h-4.34v8.14a2.49,2.49,0,0,0,.56,1.77,2.3,2.3,0,0,0,1.74.59,5.43,5.43,0,0,0,2.4-.68v2.13Z" transform="translate(-205 -580.55)"/></svg>